<svg xmlns="http://www.w3.org/2000/svg" viewBox="0 0 900 580" width="900" height="580">
  <defs>
    <radialGradient id="bg-glow" cx="50%" cy="50%" r="60%">
      <stop offset="0%" stop-color="#000000" stop-opacity="0.6"/>
      <stop offset="100%" stop-color="#000000" stop-opacity="0"/>
    </radialGradient>
    <linearGradient id="gold-divider" x1="0" y1="0" x2="1" y2="0">
      <stop offset="0%" stop-color="rgba(212,175,55,0)"/>
      <stop offset="50%" stop-color="rgba(212,175,55,0.4)"/>
      <stop offset="100%" stop-color="rgba(212,175,55,0)"/>
    </linearGradient>
    <filter id="green-blur"><feGaussianBlur stdDeviation="2"/></filter>
  </defs>

  <!-- Pure black background -->
  <rect width="900" height="580" fill="#000000"/>

  <!-- Sparse matrix rain background -->
  <g font-family="monospace" font-size="14" fill="rgba(180,255,180,0.25)">
    <text x="15" y="20">θ</text><text x="15" y="54">Σ</text><text x="15" y="88">α</text><text x="15" y="122">Π</text><text x="15" y="156">ω</text><text x="15" y="190">κ</text><text x="15" y="224">Ξ</text><text x="15" y="258">ρ</text><text x="15" y="292">δ</text><text x="15" y="326">Ω</text><text x="15" y="360">μ</text><text x="15" y="394">Λ</text><text x="15" y="428">η</text><text x="15" y="462">Φ</text><text x="15" y="496">β</text><text x="15" y="530">γ</text><text x="15" y="564">ζ</text>
    <text x="45" y="35">ψ</text><text x="45" y="69">Β</text><text x="45" y="103">ν</text><text x="45" y="137">φ</text><text x="45" y="171">Γ</text><text x="45" y="205">ε</text><text x="45" y="239">τ</text><text x="45" y="273">Η</text><text x="45" y="307">ι</text><text x="45" y="341">χ</text><text x="45" y="375">Α</text><text x="45" y="409">λ</text><text x="45" y="443">Θ</text><text x="45" y="477">ξ</text><text x="45" y="511">Κ</text><text x="45" y="545">υ</text><text x="45" y="579">Ψ</text>
    <text x="855" y="25">Σ</text><text x="855" y="59">π</text><text x="855" y="93">α</text><text x="855" y="127">ρ</text><text x="855" y="161">τ</text><text x="855" y="195">ο</text><text x="855" y="229">ί</text><text x="855" y="263">Δ</text><text x="855" y="297">Ω</text><text x="855" y="331">θ</text><text x="855" y="365">Λ</text><text x="855" y="399">φ</text><text x="855" y="433">Γ</text><text x="855" y="467">ψ</text><text x="855" y="501">β</text><text x="855" y="535">η</text><text x="855" y="569">κ</text>
    <text x="885" y="12">ζ</text><text x="885" y="46">Ψ</text><text x="885" y="80">ε</text><text x="885" y="114">Π</text><text x="885" y="148">ω</text><text x="885" y="182">χ</text><text x="885" y="216">ν</text><text x="885" y="250">Φ</text><text x="885" y="284">δ</text><text x="885" y="318">μ</text><text x="885" y="352">Σ</text><text x="885" y="386">α</text><text x="885" y="420">ι</text><text x="885" y="454">Η</text><text x="885" y="488">τ</text><text x="885" y="522">Ξ</text><text x="885" y="556">Ρ</text>
  </g>
  <!-- Occasional gold rain letters -->
  <g font-family="monospace" font-size="14" fill="rgba(212,175,55,0.35)">
    <text x="15" y="190">κ</text><text x="45" y="375">Α</text><text x="855" y="195">ο</text><text x="885" y="352">Σ</text>
  </g>

  <!-- Center area slight clearing -->
  <rect width="900" height="580" fill="url(#bg-glow)"/>

  <!-- ==================== USER CARD ==================== -->
  <rect x="320" y="20" width="260" height="88" rx="8" fill="rgba(20,16,8,0.75)" stroke="rgba(212,175,55,0.2)" stroke-width="1"/>
  <!-- User icon (gold, matching feature-icon style) -->
  <g stroke="rgba(212,175,55,0.7)" stroke-width="1.5" fill="none">
    <circle cx="348" cy="46" r="8"/>
    <path d="M340,65 C340,57 348,54 348,54 C348,54 356,57 356,65"/>
  </g>
  <text x="368" y="50" fill="rgba(255,255,255,0.75)" font-family="Georgia, 'Times New Roman', serif" font-size="16" font-weight="bold" letter-spacing="0.08em">User</text>
  <text x="348" y="74" fill="rgba(255,255,255,0.45)" font-family="-apple-system, BlinkMacSystemFont, 'Segoe UI', sans-serif" font-size="12">Product direction · Requirements · Wave acceptance</text>

  <!-- ==================== ARROW: User → Lead ==================== -->
  <line x1="450" y1="108" x2="450" y2="145" stroke="rgba(180,255,180,0.35)" stroke-width="1.5"/>
  <polygon points="445,143 450,152 455,143" fill="rgba(180,255,180,0.35)"/>
  <text x="458" y="134" fill="rgba(255,255,255,0.25)" font-family="-apple-system, BlinkMacSystemFont, 'Segoe UI', sans-serif" font-size="10">directs</text>

  <!-- ==================== TEAM LEAD CARD ==================== -->
  <rect x="170" y="155" width="560" height="160" rx="8" fill="rgba(20,16,8,0.75)" stroke="rgba(212,175,55,0.2)" stroke-width="1"/>
  <!-- Lead header bar -->
  <rect x="170" y="155" width="560" height="36" rx="8" fill="rgba(212,175,55,0.06)"/>
  <rect x="170" y="183" width="560" height="8" fill="rgba(20,16,8,0.75)"/>
  <!-- Shield icon -->
  <g stroke="rgba(212,175,55,0.7)" stroke-width="1.5" fill="none">
    <path d="M195,164 L203,161 L211,164 L211,174 C211,179 203,183 203,183 C203,183 195,179 195,174 Z"/>
  </g>
  <text x="220" y="178" fill="rgba(255,255,255,0.75)" font-family="Georgia, 'Times New Roman', serif" font-size="15" font-weight="bold" letter-spacing="0.06em">Team Lead</text>
  <text x="340" y="178" fill="rgba(255,255,255,0.3)" font-family="-apple-system, BlinkMacSystemFont, 'Segoe UI', sans-serif" font-size="11">Claude main session</text>
  <!-- Model badge -->
  <rect x="580" y="163" width="130" height="20" rx="4" fill="rgba(212,175,55,0.08)" stroke="rgba(212,175,55,0.15)" stroke-width="0.5"/>
  <text x="645" y="177" text-anchor="middle" fill="rgba(212,175,55,0.55)" font-family="'Courier New', monospace" font-size="10">Claude Opus 4.6</text>

  <!-- Lead tasks (left) -->
  <g fill="rgba(255,255,255,0.55)" font-family="-apple-system, BlinkMacSystemFont, 'Segoe UI', sans-serif" font-size="12">
    <text x="200" y="212">Break down tasks</text>
    <text x="200" y="232">Interface contracts</text>
    <text x="200" y="252">Coordinate workflow</text>
    <text x="200" y="272">Merge code</text>
  </g>
  <g fill="rgba(212,175,55,0.4)">
    <circle cx="192" cy="209" r="2"/><circle cx="192" cy="229" r="2"/><circle cx="192" cy="249" r="2"/><circle cx="192" cy="269" r="2"/>
  </g>

  <!-- Vertical divider -->
  <line x1="440" y1="198" x2="440" y2="300" stroke="rgba(212,175,55,0.1)" stroke-width="0.5"/>

  <!-- Doc Engineer sub-card (inside Lead) -->
  <rect x="460" y="198" width="250" height="100" rx="6" fill="rgba(20,16,8,0.5)" stroke="rgba(212,175,55,0.1)" stroke-width="0.5" stroke-dasharray="4,3"/>
  <!-- Doc icon -->
  <g stroke="rgba(212,175,55,0.7)" stroke-width="1.2" fill="none">
    <rect x="478" y="212" width="11" height="14" rx="1"/>
    <line x1="481" y1="217" x2="486" y2="217"/><line x1="481" y1="220" x2="486" y2="220"/><line x1="481" y1="223" x2="484" y2="223"/>
  </g>
  <text x="496" y="224" fill="rgba(255,255,255,0.65)" font-family="Georgia, 'Times New Roman', serif" font-size="13" font-weight="bold" letter-spacing="0.04em">Doc Engineer</text>
  <rect x="618" y="212" width="72" height="16" rx="3" fill="rgba(212,175,55,0.06)" stroke="rgba(212,175,55,0.12)" stroke-width="0.5"/>
  <text x="654" y="224" text-anchor="middle" fill="rgba(212,175,55,0.45)" font-family="'Courier New', monospace" font-size="9">sub-agent</text>
  <text x="478" y="253" fill="rgba(255,255,255,0.4)" font-family="-apple-system, BlinkMacSystemFont, 'Segoe UI', sans-serif" font-size="11">After Wave completion</text>
  <text x="478" y="270" fill="rgba(255,255,255,0.4)" font-family="-apple-system, BlinkMacSystemFont, 'Segoe UI', sans-serif" font-size="11">Documentation audit</text>

  <!-- ==================== ARROW: Lead → Developer ==================== -->
  <line x1="330" y1="315" x2="230" y2="370" stroke="rgba(180,255,180,0.3)" stroke-width="1.5"/>
  <polygon points="226,366 228,376 235,368" fill="rgba(180,255,180,0.3)"/>
  <text x="260" y="345" fill="rgba(180,255,180,0.25)" font-family="-apple-system, BlinkMacSystemFont, 'Segoe UI', sans-serif" font-size="10">spawns</text>

  <!-- ==================== ARROW: Lead → Codex ==================== -->
  <line x1="570" y1="315" x2="670" y2="370" stroke="rgba(180,255,180,0.3)" stroke-width="1.5"/>
  <polygon points="665,368 672,376 674,366" fill="rgba(180,255,180,0.3)"/>
  <text x="620" y="345" fill="rgba(180,255,180,0.25)" font-family="-apple-system, BlinkMacSystemFont, 'Segoe UI', sans-serif" font-size="10">invokes</text>

  <!-- ==================== DEVELOPER CARD ==================== -->
  <rect x="75" y="378" width="280" height="150" rx="8" fill="rgba(20,16,8,0.75)" stroke="rgba(212,175,55,0.15)" stroke-width="1"/>
  <!-- Header bar -->
  <rect x="75" y="378" width="280" height="34" rx="8" fill="rgba(212,175,55,0.04)"/>
  <rect x="75" y="404" width="280" height="8" fill="rgba(20,16,8,0.75)"/>
  <!-- Terminal icon -->
  <text x="95" y="400" fill="rgba(212,175,55,0.7)" font-family="'Courier New', monospace" font-size="14">&gt;_</text>
  <text x="118" y="400" fill="rgba(255,255,255,0.75)" font-family="Georgia, 'Times New Roman', serif" font-size="14" font-weight="bold" letter-spacing="0.04em">Developer</text>
  <rect x="228" y="386" width="108" height="18" rx="3" fill="rgba(212,175,55,0.06)" stroke="rgba(212,175,55,0.12)" stroke-width="0.5"/>
  <text x="282" y="399" text-anchor="middle" fill="rgba(212,175,55,0.45)" font-family="'Courier New', monospace" font-size="9">teammate</text>
  <!-- Dev tasks -->
  <g fill="rgba(255,255,255,0.5)" font-family="-apple-system, BlinkMacSystemFont, 'Segoe UI', sans-serif" font-size="12">
    <text x="105" y="432">Write code</text>
    <text x="105" y="452">Write unit tests</text>
    <text x="105" y="472">Review Codex fixes</text>
  </g>
  <g fill="rgba(212,175,55,0.3)">
    <circle cx="97" cy="429" r="2"/><circle cx="97" cy="449" r="2"/><circle cx="97" cy="469" r="2"/>
  </g>
  <!-- Model badge -->
  <rect x="95" y="492" width="130" height="20" rx="4" fill="rgba(212,175,55,0.06)" stroke="rgba(212,175,55,0.12)" stroke-width="0.5"/>
  <text x="160" y="506" text-anchor="middle" fill="rgba(212,175,55,0.45)" font-family="'Courier New', monospace" font-size="10">Claude Opus 4.6</text>

  <!-- ==================== CODEX REVIEWER CARD ==================== -->
  <rect x="545" y="378" width="280" height="150" rx="8" fill="rgba(20,16,8,0.75)" stroke="rgba(212,175,55,0.15)" stroke-width="1"/>
  <!-- Header bar -->
  <rect x="545" y="378" width="280" height="34" rx="8" fill="rgba(212,175,55,0.04)"/>
  <rect x="545" y="404" width="280" height="8" fill="rgba(20,16,8,0.75)"/>
  <!-- Eye/review icon -->
  <g stroke="rgba(212,175,55,0.7)" stroke-width="1.2" fill="none">
    <ellipse cx="570" cy="395" rx="9" ry="6"/>
    <circle cx="570" cy="395" r="3" fill="rgba(212,175,55,0.3)"/>
  </g>
  <text x="588" y="400" fill="rgba(255,255,255,0.75)" font-family="Georgia, 'Times New Roman', serif" font-size="14" font-weight="bold" letter-spacing="0.04em">Codex Reviewer</text>
  <rect x="730" y="386" width="76" height="18" rx="3" fill="rgba(212,175,55,0.06)" stroke="rgba(212,175,55,0.12)" stroke-width="0.5"/>
  <text x="768" y="399" text-anchor="middle" fill="rgba(212,175,55,0.45)" font-family="'Courier New', monospace" font-size="9">MCP call</text>
  <!-- Codex tasks -->
  <g fill="rgba(255,255,255,0.5)" font-family="-apple-system, BlinkMacSystemFont, 'Segoe UI', sans-serif" font-size="12">
    <text x="575" y="432">Code review</text>
    <text x="575" y="452">Fix issues directly</text>
    <text x="575" y="472">QA smoke testing</text>
  </g>
  <g fill="rgba(212,175,55,0.3)">
    <circle cx="567" cy="429" r="2"/><circle cx="567" cy="449" r="2"/><circle cx="567" cy="469" r="2"/>
  </g>
  <!-- Model badge -->
  <rect x="565" y="492" width="100" height="20" rx="4" fill="rgba(212,175,55,0.06)" stroke="rgba(212,175,55,0.12)" stroke-width="0.5"/>
  <text x="615" y="506" text-anchor="middle" fill="rgba(212,175,55,0.45)" font-family="'Courier New', monospace" font-size="10">Codex 5.3</text>

  <!-- ==================== CROSS-REVIEW DASHED LINE ==================== -->
  <line x1="355" y1="455" x2="545" y2="455" stroke="rgba(180,255,180,0.15)" stroke-width="1" stroke-dasharray="6,4"/>
  <polygon points="541,452 548,455 541,458" fill="rgba(180,255,180,0.18)"/>
  <polygon points="359,452 352,455 359,458" fill="rgba(180,255,180,0.18)"/>
  <text x="450" y="448" text-anchor="middle" fill="rgba(255,255,255,0.2)" font-family="-apple-system, BlinkMacSystemFont, 'Segoe UI', sans-serif" font-size="10">cross-review (different AI sources)</text>

  <!-- ==================== BOTTOM ==================== -->
  <rect x="250" y="548" width="400" height="1" fill="url(#gold-divider)"/>
  <text x="450" y="572" text-anchor="middle" fill="rgba(212,175,55,0.3)" font-family="Georgia, 'Times New Roman', serif" font-size="11" letter-spacing="0.1em">Two top-tier models · One workflow · Zero API fees</text>
</svg>